<svg width="1200" height="900" viewBox="0 0 1200 900" fill="none" xmlns="http://www.w3.org/2000/svg">
  <rect width="1200" height="900" rx="36" fill="#070A10"/>
  <rect x="142" y="120" width="916" height="560" rx="24" fill="#0C1320" stroke="#1E293B" stroke-width="4"/>
  <rect x="182" y="164" width="836" height="474" rx="16" fill="#09111B"/>
  <rect x="220" y="206" width="334" height="220" rx="14" fill="#102033"/>
  <rect x="584" y="206" width="396" height="32" rx="8" fill="#334155"/>
  <rect x="584" y="260" width="354" height="24" rx="7" fill="#1F2937"/>
  <rect x="584" y="304" width="394" height="24" rx="7" fill="#1F2937"/>
  <rect x="220" y="452" width="758" height="146" rx="14" fill="url(#paint0_linear_550_1)"/>
  <path d="M96 700H1104L1012 760H188L96 700Z" fill="#0F172A"/>
  <rect x="448" y="706" width="304" height="14" rx="7" fill="#1E293B"/>
  <circle cx="244" cy="184" r="7" fill="#22D3EE"/>
  <circle cx="272" cy="184" r="7" fill="#38BDF8"/>
  <circle cx="300" cy="184" r="7" fill="#0EA5E9"/>
  <defs>
    <linearGradient id="paint0_linear_550_1" x1="220" y1="452" x2="978" y2="598" gradientUnits="userSpaceOnUse">
      <stop stop-color="#0EA5E9"/>
      <stop offset="1" stop-color="#1E293B"/>
    </linearGradient>
  </defs>
</svg>
