<svg width="1600" height="900" viewBox="0 0 1600 900" fill="none" xmlns="http://www.w3.org/2000/svg">
  <rect width="1600" height="900" fill="#05080D"/>
  <rect x="72" y="82" width="1456" height="736" rx="28" fill="#0B111A" stroke="#1E293B" stroke-width="2"/>
  <rect x="114" y="138" width="432" height="620" rx="20" fill="#111827"/>
  <rect x="574" y="138" width="911" height="178" rx="20" fill="#0D1A27"/>
  <rect x="574" y="344" width="444" height="414" rx="20" fill="#0D1A27"/>
  <rect x="1041" y="344" width="444" height="414" rx="20" fill="#0D1A27"/>
  <circle cx="136" cy="106" r="7" fill="#22D3EE"/>
  <circle cx="162" cy="106" r="7" fill="#38BDF8"/>
  <circle cx="188" cy="106" r="7" fill="#0EA5E9"/>
  <rect x="136" y="186" width="388" height="16" rx="8" fill="#334155"/>
  <rect x="136" y="226" width="286" height="14" rx="7" fill="#1F2937"/>
  <rect x="136" y="260" width="332" height="14" rx="7" fill="#1F2937"/>
  <rect x="136" y="326" width="388" height="160" rx="14" fill="url(#paint0_linear_330_1)"/>
  <defs>
    <linearGradient id="paint0_linear_330_1" x1="136" y1="326" x2="524" y2="486" gradientUnits="userSpaceOnUse">
      <stop stop-color="#0EA5E9"/>
      <stop offset="1" stop-color="#1E293B"/>
    </linearGradient>
  </defs>
</svg>
